<mxfile host="app.diagrams.net" modified="2021-12-23T09:15:18.141Z" agent="5.0 (Windows NT 10.0; Win64; x64) AppleWebKit/537.36 (KHTML, like Gecko) Chrome/96.0.4664.110 Safari/537.36" etag="SWnZaX4llxSIreyvm6Zh" version="16.0.3" type="github">
  <diagram id="UXoUPtAeHOVSdncbpQZQ" name="Page-1">
    <mxGraphModel dx="1966" dy="1060" grid="1" gridSize="10" guides="1" tooltips="1" connect="1" arrows="1" fold="1" page="1" pageScale="1" pageWidth="827" pageHeight="1169" math="0" shadow="0">
      <root>
        <mxCell id="0" />
        <mxCell id="1" parent="0" />
        <mxCell id="PIPFyShP-Cy4KktQ9gSj-3" value="议案模块" style="shape=umlLifeline;perimeter=lifelinePerimeter;whiteSpace=wrap;html=1;container=1;collapsible=0;recursiveResize=0;outlineConnect=0;" parent="1" vertex="1">
          <mxGeometry x="510" y="580" width="100" height="980" as="geometry" />
        </mxCell>
        <mxCell id="0pjadvOdGxTtpfprGWlY-28" value="" style="html=1;points=[];perimeter=orthogonalPerimeter;" vertex="1" parent="PIPFyShP-Cy4KktQ9gSj-3">
          <mxGeometry x="45" y="530" width="10" height="40" as="geometry" />
        </mxCell>
        <mxCell id="0pjadvOdGxTtpfprGWlY-72" value="" style="html=1;points=[];perimeter=orthogonalPerimeter;" vertex="1" parent="PIPFyShP-Cy4KktQ9gSj-3">
          <mxGeometry x="55" y="550" width="10" height="20" as="geometry" />
        </mxCell>
        <mxCell id="0pjadvOdGxTtpfprGWlY-73" value="保存议案" style="edgeStyle=orthogonalEdgeStyle;html=1;align=left;spacingLeft=2;endArrow=block;rounded=0;entryX=1;entryY=0;exitX=0.5;exitY=0.001;exitDx=0;exitDy=0;exitPerimeter=0;" edge="1" target="0pjadvOdGxTtpfprGWlY-72" parent="PIPFyShP-Cy4KktQ9gSj-3" source="0pjadvOdGxTtpfprGWlY-28">
          <mxGeometry relative="1" as="geometry">
            <mxPoint x="60" y="530" as="sourcePoint" />
            <Array as="points">
              <mxPoint x="90" y="530" />
              <mxPoint x="90" y="550" />
            </Array>
          </mxGeometry>
        </mxCell>
        <mxCell id="PIPFyShP-Cy4KktQ9gSj-4" value="DTR模块" style="shape=umlLifeline;perimeter=lifelinePerimeter;whiteSpace=wrap;html=1;container=1;collapsible=0;recursiveResize=0;outlineConnect=0;" parent="1" vertex="1">
          <mxGeometry x="280" y="580" width="100" height="980" as="geometry" />
        </mxCell>
        <mxCell id="0pjadvOdGxTtpfprGWlY-1" value="" style="html=1;points=[];perimeter=orthogonalPerimeter;" vertex="1" parent="PIPFyShP-Cy4KktQ9gSj-4">
          <mxGeometry x="45" y="80" width="10" height="40" as="geometry" />
        </mxCell>
        <mxCell id="0pjadvOdGxTtpfprGWlY-5" value="" style="html=1;points=[];perimeter=orthogonalPerimeter;" vertex="1" parent="PIPFyShP-Cy4KktQ9gSj-4">
          <mxGeometry x="45" y="160" width="10" height="40" as="geometry" />
        </mxCell>
        <mxCell id="0pjadvOdGxTtpfprGWlY-6" value="2.EDER修改机能与零件关系()" style="html=1;verticalAlign=bottom;endArrow=block;rounded=0;" edge="1" parent="PIPFyShP-Cy4KktQ9gSj-4">
          <mxGeometry relative="1" as="geometry">
            <mxPoint x="-180" y="160" as="sourcePoint" />
            <mxPoint x="49.5" y="160" as="targetPoint" />
          </mxGeometry>
        </mxCell>
        <mxCell id="0pjadvOdGxTtpfprGWlY-8" value="" style="html=1;points=[];perimeter=orthogonalPerimeter;" vertex="1" parent="PIPFyShP-Cy4KktQ9gSj-4">
          <mxGeometry x="45" y="230" width="10" height="40" as="geometry" />
        </mxCell>
        <mxCell id="0pjadvOdGxTtpfprGWlY-9" value="3.EDER修改零件数据()" style="html=1;verticalAlign=bottom;endArrow=block;rounded=0;" edge="1" parent="PIPFyShP-Cy4KktQ9gSj-4">
          <mxGeometry relative="1" as="geometry">
            <mxPoint x="-179" y="230" as="sourcePoint" />
            <mxPoint x="50.5" y="230" as="targetPoint" />
          </mxGeometry>
        </mxCell>
        <mxCell id="0pjadvOdGxTtpfprGWlY-13" value="" style="html=1;points=[];perimeter=orthogonalPerimeter;" vertex="1" parent="PIPFyShP-Cy4KktQ9gSj-4">
          <mxGeometry x="45" y="310" width="10" height="50" as="geometry" />
        </mxCell>
        <mxCell id="0pjadvOdGxTtpfprGWlY-16" value="" style="html=1;points=[];perimeter=orthogonalPerimeter;" vertex="1" parent="PIPFyShP-Cy4KktQ9gSj-4">
          <mxGeometry x="45" y="410" width="10" height="50" as="geometry" />
        </mxCell>
        <mxCell id="0pjadvOdGxTtpfprGWlY-23" value="" style="html=1;points=[];perimeter=orthogonalPerimeter;" vertex="1" parent="PIPFyShP-Cy4KktQ9gSj-4">
          <mxGeometry x="45" y="510" width="10" height="150" as="geometry" />
        </mxCell>
        <mxCell id="0pjadvOdGxTtpfprGWlY-32" value="" style="html=1;points=[];perimeter=orthogonalPerimeter;" vertex="1" parent="PIPFyShP-Cy4KktQ9gSj-4">
          <mxGeometry x="45" y="710" width="10" height="40" as="geometry" />
        </mxCell>
        <mxCell id="0pjadvOdGxTtpfprGWlY-35" value="" style="html=1;points=[];perimeter=orthogonalPerimeter;" vertex="1" parent="PIPFyShP-Cy4KktQ9gSj-4">
          <mxGeometry x="45" y="790" width="10" height="40" as="geometry" />
        </mxCell>
        <mxCell id="0pjadvOdGxTtpfprGWlY-36" value="8.销售店发起申诉()" style="html=1;verticalAlign=bottom;endArrow=block;entryX=0;entryY=0;rounded=0;" edge="1" parent="PIPFyShP-Cy4KktQ9gSj-4" target="0pjadvOdGxTtpfprGWlY-35">
          <mxGeometry relative="1" as="geometry">
            <mxPoint x="-180" y="790" as="sourcePoint" />
          </mxGeometry>
        </mxCell>
        <mxCell id="0pjadvOdGxTtpfprGWlY-43" value="" style="html=1;points=[];perimeter=orthogonalPerimeter;" vertex="1" parent="PIPFyShP-Cy4KktQ9gSj-4">
          <mxGeometry x="55" y="100" width="10" height="10" as="geometry" />
        </mxCell>
        <mxCell id="0pjadvOdGxTtpfprGWlY-44" value="保存关联关系" style="edgeStyle=orthogonalEdgeStyle;html=1;align=left;spacingLeft=2;endArrow=block;rounded=0;entryX=1;entryY=0;" edge="1" target="0pjadvOdGxTtpfprGWlY-43" parent="PIPFyShP-Cy4KktQ9gSj-4">
          <mxGeometry relative="1" as="geometry">
            <mxPoint x="50" y="80" as="sourcePoint" />
            <Array as="points">
              <mxPoint x="90" y="80" />
            </Array>
          </mxGeometry>
        </mxCell>
        <mxCell id="0pjadvOdGxTtpfprGWlY-46" value="" style="html=1;points=[];perimeter=orthogonalPerimeter;" vertex="1" parent="PIPFyShP-Cy4KktQ9gSj-4">
          <mxGeometry x="55" y="180" width="10" height="10" as="geometry" />
        </mxCell>
        <mxCell id="0pjadvOdGxTtpfprGWlY-47" value="保存关联关系" style="edgeStyle=orthogonalEdgeStyle;html=1;align=left;spacingLeft=2;endArrow=block;rounded=0;entryX=1;entryY=0;exitX=0.93;exitY=0.008;exitDx=0;exitDy=0;exitPerimeter=0;" edge="1" target="0pjadvOdGxTtpfprGWlY-46" parent="PIPFyShP-Cy4KktQ9gSj-4" source="0pjadvOdGxTtpfprGWlY-5">
          <mxGeometry relative="1" as="geometry">
            <mxPoint x="60" y="160" as="sourcePoint" />
            <Array as="points">
              <mxPoint x="90" y="160" />
              <mxPoint x="90" y="180" />
            </Array>
          </mxGeometry>
        </mxCell>
        <mxCell id="0pjadvOdGxTtpfprGWlY-48" value="" style="html=1;points=[];perimeter=orthogonalPerimeter;" vertex="1" parent="PIPFyShP-Cy4KktQ9gSj-4">
          <mxGeometry x="55" y="250" width="10" height="10" as="geometry" />
        </mxCell>
        <mxCell id="0pjadvOdGxTtpfprGWlY-49" value="保存零件数据" style="edgeStyle=orthogonalEdgeStyle;html=1;align=left;spacingLeft=2;endArrow=block;rounded=0;entryX=1;entryY=0;exitX=0.96;exitY=0.002;exitDx=0;exitDy=0;exitPerimeter=0;" edge="1" target="0pjadvOdGxTtpfprGWlY-48" parent="PIPFyShP-Cy4KktQ9gSj-4" source="0pjadvOdGxTtpfprGWlY-8">
          <mxGeometry relative="1" as="geometry">
            <mxPoint x="60" y="230" as="sourcePoint" />
            <Array as="points">
              <mxPoint x="90" y="230" />
              <mxPoint x="90" y="250" />
            </Array>
          </mxGeometry>
        </mxCell>
        <mxCell id="0pjadvOdGxTtpfprGWlY-50" value="" style="html=1;points=[];perimeter=orthogonalPerimeter;" vertex="1" parent="PIPFyShP-Cy4KktQ9gSj-4">
          <mxGeometry x="55" y="330" width="10" height="20" as="geometry" />
        </mxCell>
        <mxCell id="0pjadvOdGxTtpfprGWlY-51" value="保存生成的DTR公告" style="edgeStyle=orthogonalEdgeStyle;html=1;align=left;spacingLeft=2;endArrow=block;rounded=0;entryX=1;entryY=0;exitX=0.84;exitY=0.014;exitDx=0;exitDy=0;exitPerimeter=0;" edge="1" target="0pjadvOdGxTtpfprGWlY-50" parent="PIPFyShP-Cy4KktQ9gSj-4" source="0pjadvOdGxTtpfprGWlY-13">
          <mxGeometry relative="1" as="geometry">
            <mxPoint x="60" y="310" as="sourcePoint" />
            <Array as="points">
              <mxPoint x="90" y="311" />
              <mxPoint x="90" y="330" />
            </Array>
          </mxGeometry>
        </mxCell>
        <mxCell id="0pjadvOdGxTtpfprGWlY-61" value="" style="html=1;points=[];perimeter=orthogonalPerimeter;" vertex="1" parent="PIPFyShP-Cy4KktQ9gSj-4">
          <mxGeometry x="55" y="430" width="10" height="20" as="geometry" />
        </mxCell>
        <mxCell id="0pjadvOdGxTtpfprGWlY-62" value="保存生成的DTR" style="edgeStyle=orthogonalEdgeStyle;html=1;align=left;spacingLeft=2;endArrow=block;rounded=0;entryX=1;entryY=0;exitX=0.904;exitY=0.002;exitDx=0;exitDy=0;exitPerimeter=0;" edge="1" target="0pjadvOdGxTtpfprGWlY-61" parent="PIPFyShP-Cy4KktQ9gSj-4" source="0pjadvOdGxTtpfprGWlY-16">
          <mxGeometry relative="1" as="geometry">
            <mxPoint x="60" y="410" as="sourcePoint" />
            <Array as="points">
              <mxPoint x="90" y="410" />
              <mxPoint x="90" y="430" />
            </Array>
          </mxGeometry>
        </mxCell>
        <mxCell id="0pjadvOdGxTtpfprGWlY-65" value="" style="html=1;points=[];perimeter=orthogonalPerimeter;" vertex="1" parent="PIPFyShP-Cy4KktQ9gSj-4">
          <mxGeometry x="55" y="730.03" width="10" height="19.97" as="geometry" />
        </mxCell>
        <mxCell id="0pjadvOdGxTtpfprGWlY-66" value="保存重新修改后上报的DTR" style="edgeStyle=orthogonalEdgeStyle;html=1;align=left;spacingLeft=2;endArrow=block;rounded=0;entryX=1;entryY=0;exitX=0.932;exitY=0.003;exitDx=0;exitDy=0;exitPerimeter=0;" edge="1" target="0pjadvOdGxTtpfprGWlY-65" parent="PIPFyShP-Cy4KktQ9gSj-4" source="0pjadvOdGxTtpfprGWlY-32">
          <mxGeometry relative="1" as="geometry">
            <mxPoint x="60" y="710" as="sourcePoint" />
            <Array as="points">
              <mxPoint x="90" y="710" />
              <mxPoint x="90" y="730" />
            </Array>
          </mxGeometry>
        </mxCell>
        <mxCell id="0pjadvOdGxTtpfprGWlY-67" value="" style="html=1;points=[];perimeter=orthogonalPerimeter;" vertex="1" parent="PIPFyShP-Cy4KktQ9gSj-4">
          <mxGeometry x="55" y="810" width="10" height="20" as="geometry" />
        </mxCell>
        <mxCell id="0pjadvOdGxTtpfprGWlY-68" value="保存申诉信息" style="edgeStyle=orthogonalEdgeStyle;html=1;align=left;spacingLeft=2;endArrow=block;rounded=0;entryX=1;entryY=0;exitX=0.947;exitY=0.01;exitDx=0;exitDy=0;exitPerimeter=0;" edge="1" target="0pjadvOdGxTtpfprGWlY-67" parent="PIPFyShP-Cy4KktQ9gSj-4" source="0pjadvOdGxTtpfprGWlY-35">
          <mxGeometry relative="1" as="geometry">
            <mxPoint x="60" y="790" as="sourcePoint" />
            <Array as="points">
              <mxPoint x="90" y="790" />
              <mxPoint x="90" y="810" />
            </Array>
          </mxGeometry>
        </mxCell>
        <mxCell id="0pjadvOdGxTtpfprGWlY-74" value="" style="html=1;points=[];perimeter=orthogonalPerimeter;" vertex="1" parent="PIPFyShP-Cy4KktQ9gSj-4">
          <mxGeometry x="55" y="610" width="10" height="40" as="geometry" />
        </mxCell>
        <mxCell id="0pjadvOdGxTtpfprGWlY-75" value="保存DTR最新状态" style="edgeStyle=orthogonalEdgeStyle;html=1;align=left;spacingLeft=2;endArrow=block;rounded=0;entryX=1;entryY=0;exitX=0.913;exitY=0.467;exitDx=0;exitDy=0;exitPerimeter=0;" edge="1" target="0pjadvOdGxTtpfprGWlY-74" parent="PIPFyShP-Cy4KktQ9gSj-4" source="0pjadvOdGxTtpfprGWlY-23">
          <mxGeometry relative="1" as="geometry">
            <mxPoint x="60" y="579" as="sourcePoint" />
            <Array as="points">
              <mxPoint x="54" y="579" />
              <mxPoint x="100" y="579" />
              <mxPoint x="100" y="610" />
            </Array>
          </mxGeometry>
        </mxCell>
        <mxCell id="PIPFyShP-Cy4KktQ9gSj-5" value="DTR前端" style="shape=umlLifeline;perimeter=lifelinePerimeter;whiteSpace=wrap;html=1;container=1;collapsible=0;recursiveResize=0;outlineConnect=0;" parent="1" vertex="1">
          <mxGeometry x="50" y="580" width="100" height="980" as="geometry" />
        </mxCell>
        <mxCell id="0pjadvOdGxTtpfprGWlY-52" value="" style="html=1;points=[];perimeter=orthogonalPerimeter;" vertex="1" parent="PIPFyShP-Cy4KktQ9gSj-5">
          <mxGeometry x="45" y="80" width="10" height="40" as="geometry" />
        </mxCell>
        <mxCell id="0pjadvOdGxTtpfprGWlY-54" value="" style="html=1;points=[];perimeter=orthogonalPerimeter;" vertex="1" parent="PIPFyShP-Cy4KktQ9gSj-5">
          <mxGeometry x="45" y="160" width="10" height="40" as="geometry" />
        </mxCell>
        <mxCell id="0pjadvOdGxTtpfprGWlY-55" value="" style="html=1;points=[];perimeter=orthogonalPerimeter;" vertex="1" parent="PIPFyShP-Cy4KktQ9gSj-5">
          <mxGeometry x="45" y="230" width="10" height="40" as="geometry" />
        </mxCell>
        <mxCell id="0pjadvOdGxTtpfprGWlY-56" value="" style="html=1;points=[];perimeter=orthogonalPerimeter;" vertex="1" parent="PIPFyShP-Cy4KktQ9gSj-5">
          <mxGeometry x="45" y="310" width="10" height="50" as="geometry" />
        </mxCell>
        <mxCell id="0pjadvOdGxTtpfprGWlY-57" value="" style="html=1;points=[];perimeter=orthogonalPerimeter;" vertex="1" parent="PIPFyShP-Cy4KktQ9gSj-5">
          <mxGeometry x="45" y="410" width="10" height="50" as="geometry" />
        </mxCell>
        <mxCell id="0pjadvOdGxTtpfprGWlY-58" value="" style="html=1;points=[];perimeter=orthogonalPerimeter;" vertex="1" parent="PIPFyShP-Cy4KktQ9gSj-5">
          <mxGeometry x="45" y="510" width="10" height="150" as="geometry" />
        </mxCell>
        <mxCell id="0pjadvOdGxTtpfprGWlY-59" value="" style="html=1;points=[];perimeter=orthogonalPerimeter;" vertex="1" parent="PIPFyShP-Cy4KktQ9gSj-5">
          <mxGeometry x="45" y="710" width="10" height="40" as="geometry" />
        </mxCell>
        <mxCell id="0pjadvOdGxTtpfprGWlY-60" value="" style="html=1;points=[];perimeter=orthogonalPerimeter;" vertex="1" parent="PIPFyShP-Cy4KktQ9gSj-5">
          <mxGeometry x="45" y="790" width="10" height="40" as="geometry" />
        </mxCell>
        <mxCell id="0pjadvOdGxTtpfprGWlY-80" value="" style="html=1;points=[];perimeter=orthogonalPerimeter;" vertex="1" parent="PIPFyShP-Cy4KktQ9gSj-5">
          <mxGeometry x="45" y="880" width="10" height="80" as="geometry" />
        </mxCell>
        <mxCell id="PIPFyShP-Cy4KktQ9gSj-6" value="FTR" style="shape=umlLifeline;perimeter=lifelinePerimeter;whiteSpace=wrap;html=1;container=1;collapsible=0;recursiveResize=0;outlineConnect=0;" parent="1" vertex="1">
          <mxGeometry x="760" y="580" width="100" height="980" as="geometry" />
        </mxCell>
        <mxCell id="0pjadvOdGxTtpfprGWlY-39" value="" style="html=1;points=[];perimeter=orthogonalPerimeter;" vertex="1" parent="PIPFyShP-Cy4KktQ9gSj-6">
          <mxGeometry x="45" y="880" width="10" height="70" as="geometry" />
        </mxCell>
        <mxCell id="0pjadvOdGxTtpfprGWlY-63" value="" style="html=1;points=[];perimeter=orthogonalPerimeter;" vertex="1" parent="PIPFyShP-Cy4KktQ9gSj-6">
          <mxGeometry x="55" y="900" width="10" height="40" as="geometry" />
        </mxCell>
        <mxCell id="0pjadvOdGxTtpfprGWlY-64" value="保存生成的FTR" style="edgeStyle=orthogonalEdgeStyle;html=1;align=left;spacingLeft=2;endArrow=block;rounded=0;entryX=1;entryY=0;exitX=1;exitY=-0.007;exitDx=0;exitDy=0;exitPerimeter=0;" edge="1" target="0pjadvOdGxTtpfprGWlY-63" parent="PIPFyShP-Cy4KktQ9gSj-6" source="0pjadvOdGxTtpfprGWlY-39">
          <mxGeometry relative="1" as="geometry">
            <mxPoint x="60" y="880" as="sourcePoint" />
            <Array as="points">
              <mxPoint x="90" y="880" />
              <mxPoint x="90" y="900" />
            </Array>
          </mxGeometry>
        </mxCell>
        <mxCell id="0pjadvOdGxTtpfprGWlY-2" value="1.EDER修改FTE与机能关系()" style="html=1;verticalAlign=bottom;endArrow=block;rounded=0;" edge="1" target="PIPFyShP-Cy4KktQ9gSj-4" parent="1">
          <mxGeometry relative="1" as="geometry">
            <mxPoint x="100" y="660" as="sourcePoint" />
          </mxGeometry>
        </mxCell>
        <mxCell id="0pjadvOdGxTtpfprGWlY-3" value="" style="html=1;verticalAlign=bottom;endArrow=open;dashed=1;endSize=8;exitX=0;exitY=0.95;rounded=0;entryX=1.017;entryY=0.959;entryDx=0;entryDy=0;entryPerimeter=0;" edge="1" source="0pjadvOdGxTtpfprGWlY-1" parent="1" target="0pjadvOdGxTtpfprGWlY-52">
          <mxGeometry relative="1" as="geometry">
            <mxPoint x="110" y="698" as="targetPoint" />
          </mxGeometry>
        </mxCell>
        <mxCell id="0pjadvOdGxTtpfprGWlY-14" value="4.EDER新建简易DTR公告()" style="html=1;verticalAlign=bottom;endArrow=block;entryX=0;entryY=0;rounded=0;" edge="1" target="0pjadvOdGxTtpfprGWlY-13" parent="1" source="PIPFyShP-Cy4KktQ9gSj-5">
          <mxGeometry relative="1" as="geometry">
            <mxPoint x="100" y="930" as="sourcePoint" />
          </mxGeometry>
        </mxCell>
        <mxCell id="0pjadvOdGxTtpfprGWlY-15" value="" style="html=1;verticalAlign=bottom;endArrow=open;dashed=1;endSize=8;exitX=0;exitY=0.95;rounded=0;entryX=1.047;entryY=0.974;entryDx=0;entryDy=0;entryPerimeter=0;" edge="1" source="0pjadvOdGxTtpfprGWlY-13" parent="1" target="0pjadvOdGxTtpfprGWlY-56">
          <mxGeometry relative="1" as="geometry">
            <mxPoint x="120" y="938" as="targetPoint" />
          </mxGeometry>
        </mxCell>
        <mxCell id="0pjadvOdGxTtpfprGWlY-17" value="5.销售店基于工单生成DTR()" style="html=1;verticalAlign=bottom;endArrow=block;entryX=0;entryY=0;rounded=0;" edge="1" target="0pjadvOdGxTtpfprGWlY-16" parent="1">
          <mxGeometry relative="1" as="geometry">
            <mxPoint x="100" y="990" as="sourcePoint" />
          </mxGeometry>
        </mxCell>
        <mxCell id="0pjadvOdGxTtpfprGWlY-18" value="" style="html=1;verticalAlign=bottom;endArrow=open;dashed=1;endSize=8;exitX=0;exitY=0.95;rounded=0;entryX=1.047;entryY=0.966;entryDx=0;entryDy=0;entryPerimeter=0;" edge="1" source="0pjadvOdGxTtpfprGWlY-16" parent="1" target="0pjadvOdGxTtpfprGWlY-57">
          <mxGeometry relative="1" as="geometry">
            <mxPoint x="120" y="1038" as="targetPoint" />
          </mxGeometry>
        </mxCell>
        <mxCell id="0pjadvOdGxTtpfprGWlY-21" value="需要判断是否符合某个简单DTR公告，如果符合就制作简单DTR，不符合则普通DTR" style="rounded=1;whiteSpace=wrap;html=1;arcSize=40;fontColor=#000000;fillColor=#ffffc0;strokeColor=#ff0000;" vertex="1" parent="1">
          <mxGeometry x="420" y="930" width="200" height="40" as="geometry" />
        </mxCell>
        <mxCell id="0pjadvOdGxTtpfprGWlY-22" value="" style="edgeStyle=orthogonalEdgeStyle;html=1;verticalAlign=bottom;endArrow=open;endSize=8;strokeColor=#ff0000;rounded=0;" edge="1" source="0pjadvOdGxTtpfprGWlY-21" parent="1">
          <mxGeometry relative="1" as="geometry">
            <mxPoint x="290" y="990" as="targetPoint" />
          </mxGeometry>
        </mxCell>
        <mxCell id="0pjadvOdGxTtpfprGWlY-24" value="6.EDER处理DTR()" style="html=1;verticalAlign=bottom;endArrow=block;entryX=0;entryY=0;rounded=0;" edge="1" target="0pjadvOdGxTtpfprGWlY-23" parent="1" source="PIPFyShP-Cy4KktQ9gSj-5">
          <mxGeometry relative="1" as="geometry">
            <mxPoint x="99.5" y="1169" as="sourcePoint" />
          </mxGeometry>
        </mxCell>
        <mxCell id="0pjadvOdGxTtpfprGWlY-25" value="" style="html=1;verticalAlign=bottom;endArrow=open;dashed=1;endSize=8;exitX=0;exitY=0.95;rounded=0;entryX=1.047;entryY=0.96;entryDx=0;entryDy=0;entryPerimeter=0;" edge="1" source="0pjadvOdGxTtpfprGWlY-23" parent="1" target="0pjadvOdGxTtpfprGWlY-58">
          <mxGeometry relative="1" as="geometry">
            <mxPoint x="99.5" y="1216.5" as="targetPoint" />
          </mxGeometry>
        </mxCell>
        <mxCell id="0pjadvOdGxTtpfprGWlY-33" value="7.销售店重新上报DTR()" style="html=1;verticalAlign=bottom;endArrow=block;entryX=0;entryY=0;rounded=0;" edge="1" target="0pjadvOdGxTtpfprGWlY-32" parent="1">
          <mxGeometry relative="1" as="geometry">
            <mxPoint x="100" y="1290" as="sourcePoint" />
          </mxGeometry>
        </mxCell>
        <mxCell id="0pjadvOdGxTtpfprGWlY-34" value="" style="html=1;verticalAlign=bottom;endArrow=open;dashed=1;endSize=8;exitX=0;exitY=0.95;rounded=0;entryX=0.957;entryY=0.975;entryDx=0;entryDy=0;entryPerimeter=0;" edge="1" source="0pjadvOdGxTtpfprGWlY-32" parent="1" target="0pjadvOdGxTtpfprGWlY-59">
          <mxGeometry relative="1" as="geometry">
            <mxPoint x="100" y="1366" as="targetPoint" />
          </mxGeometry>
        </mxCell>
        <mxCell id="0pjadvOdGxTtpfprGWlY-41" value="DTR管理" style="shape=umlFrame;whiteSpace=wrap;html=1;" vertex="1" parent="1">
          <mxGeometry y="560" width="940" height="1030" as="geometry" />
        </mxCell>
        <mxCell id="0pjadvOdGxTtpfprGWlY-7" value="" style="html=1;verticalAlign=bottom;endArrow=open;dashed=1;endSize=8;exitX=0;exitY=0.95;rounded=0;entryX=0.987;entryY=0.967;entryDx=0;entryDy=0;entryPerimeter=0;" edge="1" parent="1" source="0pjadvOdGxTtpfprGWlY-5" target="0pjadvOdGxTtpfprGWlY-54">
          <mxGeometry relative="1" as="geometry">
            <mxPoint x="99.5" y="778" as="targetPoint" />
          </mxGeometry>
        </mxCell>
        <mxCell id="0pjadvOdGxTtpfprGWlY-10" value="" style="html=1;verticalAlign=bottom;endArrow=open;dashed=1;endSize=8;exitX=0;exitY=0.95;rounded=0;entryX=0.866;entryY=1.006;entryDx=0;entryDy=0;entryPerimeter=0;" edge="1" parent="1" source="0pjadvOdGxTtpfprGWlY-8" target="0pjadvOdGxTtpfprGWlY-55">
          <mxGeometry relative="1" as="geometry">
            <mxPoint x="99.5" y="848" as="targetPoint" />
          </mxGeometry>
        </mxCell>
        <mxCell id="0pjadvOdGxTtpfprGWlY-37" value="" style="html=1;verticalAlign=bottom;endArrow=open;dashed=1;endSize=8;exitX=0;exitY=0.95;rounded=0;entryX=0.987;entryY=0.968;entryDx=0;entryDy=0;entryPerimeter=0;" edge="1" parent="1" source="0pjadvOdGxTtpfprGWlY-35" target="0pjadvOdGxTtpfprGWlY-60">
          <mxGeometry relative="1" as="geometry">
            <mxPoint x="99.5" y="1408" as="targetPoint" />
          </mxGeometry>
        </mxCell>
        <mxCell id="0pjadvOdGxTtpfprGWlY-29" value="6.1EDER新建议案()" style="html=1;verticalAlign=bottom;startArrow=oval;endArrow=block;startSize=8;rounded=0;entryX=-0.038;entryY=0.021;entryDx=0;entryDy=0;entryPerimeter=0;" edge="1" target="0pjadvOdGxTtpfprGWlY-28" parent="1">
          <mxGeometry relative="1" as="geometry">
            <mxPoint x="340" y="1111" as="sourcePoint" />
            <Array as="points" />
          </mxGeometry>
        </mxCell>
        <mxCell id="0pjadvOdGxTtpfprGWlY-38" value="" style="html=1;verticalAlign=bottom;endArrow=open;dashed=1;endSize=8;rounded=0;exitX=0.5;exitY=1;exitDx=0;exitDy=0;exitPerimeter=0;" edge="1" parent="1" source="0pjadvOdGxTtpfprGWlY-28" target="0pjadvOdGxTtpfprGWlY-23">
          <mxGeometry relative="1" as="geometry">
            <mxPoint x="795" y="1241" as="sourcePoint" />
            <mxPoint x="340" y="1150" as="targetPoint" />
          </mxGeometry>
        </mxCell>
        <mxCell id="0pjadvOdGxTtpfprGWlY-69" value="点选议案关联若无相关议案项，可新建议案" style="rounded=1;whiteSpace=wrap;html=1;arcSize=40;fontColor=#000000;fillColor=#ffffc0;strokeColor=#ff0000;" vertex="1" parent="1">
          <mxGeometry x="630" y="1040" width="130" height="40" as="geometry" />
        </mxCell>
        <mxCell id="0pjadvOdGxTtpfprGWlY-70" value="" style="edgeStyle=orthogonalEdgeStyle;html=1;verticalAlign=bottom;endArrow=open;endSize=8;strokeColor=#ff0000;rounded=0;" edge="1" source="0pjadvOdGxTtpfprGWlY-69" parent="1">
          <mxGeometry relative="1" as="geometry">
            <mxPoint x="390" y="1110" as="targetPoint" />
          </mxGeometry>
        </mxCell>
        <mxCell id="0pjadvOdGxTtpfprGWlY-77" value="&lt;div&gt;&lt;span style=&quot;font-size: 6.104pt&quot;&gt;若该FTR创建成功，则DTR自动执行通过处理。&lt;/span&gt;&lt;/div&gt;" style="rounded=1;whiteSpace=wrap;html=1;arcSize=40;fontColor=#000000;fillColor=#ffffc0;strokeColor=#ff0000;" vertex="1" parent="1">
          <mxGeometry x="580" y="1360" width="180" height="40" as="geometry" />
        </mxCell>
        <mxCell id="0pjadvOdGxTtpfprGWlY-78" value="" style="edgeStyle=orthogonalEdgeStyle;html=1;verticalAlign=bottom;endArrow=open;endSize=8;strokeColor=#ff0000;rounded=0;" edge="1" source="0pjadvOdGxTtpfprGWlY-77" parent="1">
          <mxGeometry relative="1" as="geometry">
            <mxPoint x="640" y="1460" as="targetPoint" />
          </mxGeometry>
        </mxCell>
        <mxCell id="0pjadvOdGxTtpfprGWlY-79" value="" style="html=1;verticalAlign=bottom;endArrow=open;dashed=1;endSize=8;rounded=0;entryX=1;entryY=0.894;entryDx=0;entryDy=0;entryPerimeter=0;" edge="1" parent="1" target="0pjadvOdGxTtpfprGWlY-80">
          <mxGeometry relative="1" as="geometry">
            <mxPoint x="810" y="1530" as="sourcePoint" />
            <mxPoint x="730" y="1530" as="targetPoint" />
          </mxGeometry>
        </mxCell>
        <mxCell id="0pjadvOdGxTtpfprGWlY-81" value="9.制作FTR（）" style="html=1;verticalAlign=bottom;endArrow=block;rounded=0;" edge="1" parent="1" target="PIPFyShP-Cy4KktQ9gSj-6">
          <mxGeometry width="80" relative="1" as="geometry">
            <mxPoint x="100" y="1460" as="sourcePoint" />
            <mxPoint x="180" y="1460" as="targetPoint" />
          </mxGeometry>
        </mxCell>
      </root>
    </mxGraphModel>
  </diagram>
</mxfile>
